<?xml version="1.0" encoding="utf-8"?>
<!-- Generator: Adobe Illustrator 16.0.0, SVG Export Plug-In . SVG Version: 6.00 Build 0)  -->
<!DOCTYPE svg PUBLIC "-//W3C//DTD SVG 1.1//EN" "http://www.w3.org/Graphics/SVG/1.1/DTD/svg11.dtd">
<svg version="1.1" id="Layer_1" xmlns="http://www.w3.org/2000/svg" xmlns:xlink="http://www.w3.org/1999/xlink" x="0px" y="0px"
	 width="59px" height="42px" viewBox="0 0 59 42" style="enable-background:new 0 0 59 42;" xml:space="preserve">
<style type="text/css">
<![CDATA[
	.st0{fill-rule:evenodd;clip-rule:evenodd;}
]]>
</style>
<g>
	<g>
		<path d="M26.7,22h-0.9c0.6-1.5,1-3.3,1-5.1c0-5.6-3.1-10.1-6.9-10.1c-3.8,0-6.9,4.5-6.9,10.1c0,1.9,0.4,3.6,1,5.1h-0.7
			C10.4,22,8,24.4,8,27.3V32c0,0.6,0.4,1,1,1h22c0.6,0,1-0.4,1-1v-4.7C32,24.4,29.6,22,26.7,22z M19.9,8.8c2.7,0,4.9,3.7,4.9,8.1
			c0,1.9-0.4,3.7-1.1,5.1h0c-0.3,0.8-0.8,1.5-1.5,2h0.1c-0.7,0.6-1.5,1-2.3,1s-1.6-0.4-2.3-1h0.1c-0.7-0.5-1.2-1.2-1.5-2h-0.1
			c-0.7-1.4-1.1-3.2-1.1-5.1C15,12.5,17.2,8.8,19.9,8.8z M30,31H10v-3.7c0-1.8,1.5-3.3,3.3-3.3H15c1.3,1.9,3,3,4.9,3s3.6-1.1,4.9-3
			h1.9c1.8,0,3.3,1.5,3.3,3.3V31z M35,22h15v-2H35V22z M39,27h11v-2H39V27z M39,32h11v-2H39V32z M55,0h-51C1.9,0,0,2.1,0,4.3V38
			c0,2.2,1.9,4,4.1,4h51c2.2,0,4-1.8,4-4V4.3C59,2.1,57.2,0,55,0z M57,38c0,1.1-0.9,2-2,2h-51C3,40,2,39.1,2,38V4.3C2,3.2,3,2,4.1,2
			h51c1.1,0,2,1.2,2,2.3V38z M33,12h17v-2H33V12z M33,17h17v-2H33V17z"/>
	</g>
</g>
</svg>
