<?xml version="1.0" encoding="utf-8"?>
<!-- Generator: Adobe Illustrator 16.0.0, SVG Export Plug-In . SVG Version: 6.00 Build 0)  -->
<!DOCTYPE svg PUBLIC "-//W3C//DTD SVG 1.1//EN" "http://www.w3.org/Graphics/SVG/1.1/DTD/svg11.dtd">
<svg version="1.1" id="Layer_1" xmlns="http://www.w3.org/2000/svg" xmlns:xlink="http://www.w3.org/1999/xlink" x="0px" y="0px"
	 width="50px" height="50px" viewBox="0 0 50 50" style="enable-background:new 0 0 50 50;" xml:space="preserve">
<style type="text/css">
<![CDATA[
	.st0{fill-rule:evenodd;clip-rule:evenodd;}
]]>
</style>
<g>
	<g>
		<path d="M39,0H3C1.3,0,0,1.3,0,3v44c0,1.7,1.3,3,3,3h44c1.7,0,3-1.3,3-3V11L39,0z M11,2h24v19H11V2z M48,47c0,0.6-0.4,1-1,1H3
			c-0.6,0-1-0.4-1-1V3c0-0.6,0.4-1,1-1h6v21h28V2h1.2l9.8,9.8V47z M29,18h2V5h-2V18z M36,32H10c-0.6,0-1,0.4-1,1c0,0.6,0.4,1,1,1h26
			c0.6,0,1-0.4,1-1C37,32.4,36.6,32,36,32z M36,37H10c-0.6,0-1,0.4-1,1c0,0.6,0.4,1,1,1h26c0.6,0,1-0.4,1-1C37,37.4,36.6,37,36,37z
			 M36,42H10c-0.6,0-1,0.4-1,1c0,0.6,0.4,1,1,1h26c0.6,0,1-0.4,1-1C37,42.4,36.6,42,36,42z"/>
	</g>
</g>
</svg>
