<?xml version="1.0" encoding="utf-8"?>
<!-- Generator: Adobe Illustrator 16.0.0, SVG Export Plug-In . SVG Version: 6.00 Build 0)  -->
<!DOCTYPE svg PUBLIC "-//W3C//DTD SVG 1.1//EN" "http://www.w3.org/Graphics/SVG/1.1/DTD/svg11.dtd">
<svg version="1.1" id="Layer_1" xmlns="http://www.w3.org/2000/svg" xmlns:xlink="http://www.w3.org/1999/xlink" x="0px" y="0px"
	 width="47.9px" height="45.8px" viewBox="0 0 47.9 45.8" style="enable-background:new 0 0 47.9 45.8;" xml:space="preserve">
<style type="text/css">
<![CDATA[
	.st0{fill-rule:evenodd;clip-rule:evenodd;}
]]>
</style>
<path d="M38.1,45.8c-0.2,0-0.3,0-0.5-0.1l-13.7-7.2l-13.7,7.2c-0.3,0.2-0.7,0.2-1.1-0.1c-0.3-0.2-0.5-0.6-0.4-1l2.6-15.3L0.3,18.4
	c-0.3-0.3-0.4-0.7-0.3-1c0.1-0.4,0.4-0.6,0.8-0.7l15.3-2.2L23,0.5c0.3-0.7,1.5-0.7,1.8,0l6.9,13.9L47,16.7c0.4,0.1,0.7,0.3,0.8,0.7
	c0.1,0.4,0,0.8-0.3,1L36.5,29.3l2.6,15.3c0.1,0.4-0.1,0.8-0.4,1C38.5,45.7,38.3,45.8,38.1,45.8z M23.9,36.3c0.2,0,0.3,0,0.5,0.1
	l12.4,6.5l-2.4-13.8c-0.1-0.3,0.1-0.7,0.3-0.9l10-9.8l-13.8-2c-0.3,0-0.6-0.3-0.8-0.5L23.9,3.2l-6.2,12.6c-0.1,0.3-0.4,0.5-0.8,0.5
	l-13.8,2l10,9.8c0.2,0.2,0.3,0.6,0.3,0.9l-2.4,13.8l12.4-6.5C23.6,36.3,23.8,36.3,23.9,36.3z"/>
</svg>
